ModelForces
version=1
nRows=39
nColumns=15
inDegrees=no

This file contains the forces exerted on a model during a simulation.

A force is a generalized force, meaning that it can be either a force (N) or a torque (Nm).

Units are S.I. units (second, meters, Newtons, ...)
Angles are in degrees.

endheader
time	Liu	Thelen	contactForce.block.force.X	contactForce.block.force.Y	contactForce.block.force.Z	contactForce.block.torque.X	contactForce.block.torque.Y	contactForce.block.torque.Z	contactForce.ground.force.X	contactForce.ground.force.Y	contactForce.ground.force.Z	contactForce.ground.torque.X	contactForce.ground.torque.Y	contactForce.ground.torque.Z
      2.01095413	    793.34996329	    852.77075512	      2.34108313	    350.33494579	     13.63230982	     -0.67683588	      0.00000000	      0.11623335	     -2.34108313	   -350.33494579	    -13.63230982	    -33.85572708	      0.22624790	     -0.00025481
      2.01465413	    810.52487144	    835.71742935	     -0.04758340	     43.28254917	     -1.32968501	      0.06642665	      0.00000000	     -0.00237711	      0.04758340	    -43.28254917	      1.32968501	     -4.18158555	     -0.00459993	     -0.00009225
      2.01835413	    840.37945818	    819.85276383	      0.00000000	      0.00000000	      0.00000000	      0.00000000	      0.00000000	      0.00000000	      0.00000000	      0.00000000	      0.00000000	      0.00000000	      0.00000000	      0.00000000
      2.02205413	    862.39209824	    817.65127581	      0.00000000	      0.00000000	      0.00000000	      0.00000000	      0.00000000	      0.00000000	      0.00000000	      0.00000000	      0.00000000	      0.00000000	      0.00000000	      0.00000000
      2.02575413	    864.66650805	    827.09369742	      0.00000000	      0.00000000	      0.00000000	      0.00000000	      0.00000000	      0.00000000	      0.00000000	      0.00000000	      0.00000000	      0.00000000	      0.00000000	      0.00000000
      2.02945413	    850.04808878	    844.08523177	      0.00000000	      0.00000000	      0.00000000	      0.00000000	      0.00000000	      0.00000000	      0.00000000	      0.00000000	      0.00000000	      0.00000000	      0.00000000	      0.00000000
      2.03315413	    831.69995126	    856.86070599	      0.96677395	    235.73541739	    -15.10529081	      0.75170671	      0.00000000	      0.04811099	     -0.96677395	   -235.73541739	     15.10529081	    -22.76720742	      0.09322863	     -0.00221468
      2.03685413	    817.77547946	    862.95019892	      7.42708060	    502.03818512	    -36.85242983	      1.82412953	      0.00000000	      0.36762724	     -7.42708060	   -502.03818512	     36.85242983	    -48.49735367	      0.71703204	     -0.00586906
      2.04055413	    808.57124222	    863.80740778	     40.17087748	    568.59144333	    -13.79860735	      0.68208330	      0.00000000	      1.98569928	    -40.17087748	   -568.59144333	     13.79860735	    -54.93453773	      3.88082761	     -0.01182838
      2.04425413	    815.89611391	    852.92502549	     -9.02986486	    392.75275246	     -8.82546084	      0.43780429	     -0.00000000	     -0.44794415	      9.02986486	   -392.75275246	      8.82546084	    -37.94130812	     -0.87273039	     -0.01839901
      2.04795413	    838.70315597	    837.05334436	     -2.22400319	     88.91432525	     -3.15434323	      0.15743647	     -0.00000000	     -0.11100225	      2.22400319	    -88.91432525	      3.15434323	     -8.58636544	     -0.21500388	     -0.00660057
      2.05165413	    860.22413528	    831.09964000	      0.00000000	      0.00000000	      0.00000000	      0.00000000	      0.00000000	      0.00000000	      0.00000000	      0.00000000	      0.00000000	      0.00000000	      0.00000000	      0.00000000
      2.05535413	    869.23650141	    837.89550864	      0.00000000	      0.00000000	      0.00000000	      0.00000000	      0.00000000	      0.00000000	      0.00000000	      0.00000000	      0.00000000	      0.00000000	      0.00000000	      0.00000000
      2.05905413	    863.64869726	    849.48586479	      0.00000000	      0.00000000	      0.00000000	      0.00000000	      0.00000000	      0.00000000	      0.00000000	      0.00000000	      0.00000000	      0.00000000	      0.00000000	      0.00000000
      2.06275413	    851.50647307	    858.54497549	      0.00000000	      0.00000000	      0.00000000	      0.00000000	      0.00000000	      0.00000000	      0.00000000	      0.00000000	      0.00000000	      0.00000000	      0.00000000	      0.00000000
      2.06645413	    842.40035756	    862.73634748	     11.19564712	    197.74781143	     -3.87700857	      0.19308441	      0.00000000	      0.55757033	    -11.19564712	   -197.74781143	      3.87700857	    -19.09525393	      1.08033963	     -0.03841303
      2.07015413	    841.44525193	    860.61750065	      9.90122129	    478.36289587	      1.53433094	     -0.07598300	      0.00000000	      0.49032740	     -9.90122129	   -478.36289587	     -1.53433094	    -46.19338709	      0.95645965	     -0.10679683
      2.07385413	    848.85953333	    856.81503629	     -2.54027813	    574.53754572	     -1.06534945	      0.05265534	     -0.00000000	     -0.12555430	      2.54027813	   -574.53754572	      1.06534945	    -55.47444881	     -0.24555072	     -0.14791366
      2.07755413	    859.28494210	    853.62591056	      1.39097624	    424.32300749	      0.63251722	     -0.03135729	      0.00000000	      0.06895819	     -1.39097624	   -424.32300749	     -0.63251722	    -40.96391019	      0.13446827	     -0.12356042
      2.08125413	    867.54222440	    853.44342927	      2.01863154	    125.57879627	      0.51046224	     -0.02545895	      0.00000000	      0.10067787	     -2.01863154	   -125.57879627	     -0.51046224	    -12.12176850	      0.19501846	     -0.04074594
      2.08495413	    870.02479950	    856.69420445	      0.00000000	      0.00000000	      0.00000000	      0.00000000	      0.00000000	      0.00000000	      0.00000000	      0.00000000	      0.00000000	      0.00000000	      0.00000000	      0.00000000
      2.08865413	    866.53915307	    861.36296114	      0.00000000	      0.00000000	      0.00000000	      0.00000000	      0.00000000	      0.00000000	      0.00000000	      0.00000000	      0.00000000	      0.00000000	      0.00000000	      0.00000000
      2.09235413	    860.58879874	    866.32489419	      0.00000000	      0.00000000	      0.00000000	      0.00000000	      0.00000000	      0.00000000	      0.00000000	      0.00000000	      0.00000000	      0.00000000	      0.00000000	      0.00000000
      2.09605413	    856.89871926	    868.18918189	      0.00000000	      0.00000000	      0.00000000	      0.00000000	      0.00000000	      0.00000000	      0.00000000	      0.00000000	      0.00000000	      0.00000000	      0.00000000	      0.00000000
      2.09975413	    858.31412310	    866.37425877	      9.56920863	    178.41778686	      1.99526227	     -0.09940743	      0.00000000	      0.47675457	     -9.56920863	   -178.41778686	     -1.99526227	    -17.22460167	      0.92476162	     -0.08425734
      2.10345413	    864.50063172	    863.42458168	      8.87947447	    464.07211632	      2.85565364	     -0.14145825	      0.00000000	      0.43985549	     -8.87947447	   -464.07211632	     -2.85565364	    -44.79800171	      0.85858973	     -0.23281640
      2.10715413	    871.55179108	    862.63403327	      5.00961434	    574.52461580	      1.17094102	     -0.05787429	      0.00000000	      0.24760246	     -5.00961434	   -574.52461580	     -1.17094102	    -55.45464738	      0.48416803	     -0.30749168
      2.11033255	    874.72971284	    867.07895939	      4.41312644	    470.78017080	      0.29793112	     -0.01475621	      0.00000000	      0.21857749	     -4.41312644	   -470.78017080	     -0.29793112	    -45.43873546	      0.42611435	     -0.26617942
      2.11351097	    874.93072458	    872.48790183	      2.57908591	    233.03827416	     -0.03632730	      0.00180789	     -0.00000000	      0.12835276	     -2.57908591	   -233.03827416	      0.03632730	    -22.49223339	      0.24890485	     -0.13886821
      2.11721097	    874.37553186	    876.23487609	      0.00000000	      0.00000000	      0.00000000	      0.00000000	      0.00000000	      0.00000000	      0.00000000	      0.00000000	      0.00000000	      0.00000000	      0.00000000	      0.00000000
      2.12091097	    874.74463347	    877.63597369	      0.00000000	      0.00000000	      0.00000000	      0.00000000	      0.00000000	      0.00000000	      0.00000000	      0.00000000	      0.00000000	      0.00000000	      0.00000000	      0.00000000
      2.12461097	    876.33859651	    877.61835689	      0.00000000	      0.00000000	      0.00000000	      0.00000000	      0.00000000	      0.00000000	      0.00000000	      0.00000000	      0.00000000	      0.00000000	      0.00000000	      0.00000000
      2.12831097	    878.41026241	    877.29614290	      0.00000000	      0.00000000	      0.00000000	      0.00000000	      0.00000000	      0.00000000	      0.00000000	      0.00000000	      0.00000000	      0.00000000	      0.00000000	      0.00000000
      2.13201097	    880.01299909	    877.43247733	      4.03326377	     56.40232632	      0.28713211	     -0.01434042	      0.00000000	      0.20143588	     -4.03326377	    -56.40232632	     -0.28713211	     -5.44341475	      0.38946470	     -0.04174843
      2.13571097	    880.82406650	    878.13546950	     19.50778637	    361.05750342	     -0.06885747	      0.00341803	      0.00000000	      0.96835125	    -19.50778637	   -361.05750342	      0.06885747	    -34.84555715	      1.88263833	     -0.27578945
      2.13941097	    880.70122164	    881.08638053	      8.69322327	    557.41563772	     -0.26682369	      0.01319249	      0.00000000	      0.42981659	     -8.69322327	   -557.41563772	      0.26682369	    -53.79643597	      0.83877474	     -0.44327072
      2.14311097	    880.20690027	    882.36741915	      5.07927176	    518.13594105	     -0.02633511	      0.00130310	      0.00000000	      0.25133068	     -5.07927176	   -518.13594105	      0.02633511	    -50.00591676	      0.49018470	     -0.43025639
      2.14681097	    880.42997564	    885.51293162	      3.78956701	    269.29317874	      0.15093721	     -0.00750618	      0.00000000	      0.18845700	     -3.78956701	   -269.29317874	     -0.15093721	    -25.98963017	      0.36586382	     -0.23311410
      2.15051097	    882.75005124	    887.31816317	      0.00000000	      0.00000000	      0.00000000	      0.00000000	      0.00000000	      0.00000000	      0.00000000	      0.00000000	      0.00000000	      0.00000000	      0.00000000	      0.00000000
